HIERARCHY
ROOT Hips
{
  OFFSET -21.6994 31.6921 0
  CHANNELS 6 Xposition Yposition Zposition Zrotation Xrotation Yrotation
  JOINT Bip01_Pelvis
  {
    OFFSET 0 0 0
    CHANNELS 6 Xposition Yposition Zposition Zrotation Xrotation Yrotation
    JOINT BN_Tail_01
    {
      OFFSET -7.25226 -1.74978 0
      CHANNELS 6 Xposition Yposition Zposition Zrotation Xrotation Yrotation
      JOINT BN_Tail_02
      {
        OFFSET 15.788 0 0
        CHANNELS 6 Xposition Yposition Zposition Zrotation Xrotation Yrotation
        JOINT BN_Tail_03
        {
          OFFSET 16.0015 0 0
          CHANNELS 6 Xposition Yposition Zposition Zrotation Xrotation Yrotation
          JOINT BN_Tail_04
          {
            OFFSET 16.1689 0 0
            CHANNELS 6 Xposition Yposition Zposition Zrotation Xrotation Yrotation
            End Site
            {
              OFFSET 0 0 0
            }
          }
        }
      }
    }
    JOINT Bip01_Spine
    {
      OFFSET 6.38383 2.70859 0.585432
      CHANNELS 6 Xposition Yposition Zposition Zrotation Xrotation Yrotation
      JOINT BN_Mane_02
      {
        OFFSET 6.12662 8.45826 0
        CHANNELS 6 Xposition Yposition Zposition Zrotation Xrotation Yrotation
        End Site
        {
          OFFSET 0 0 0
        }
      }
      JOINT Bip01_R_Thigh
      {
        OFFSET -7.04074 -2.18223 -5.47025
        CHANNELS 6 Xposition Yposition Zposition Zrotation Xrotation Yrotation
        JOINT Bip01_R_Calf
        {
          OFFSET 13.6591 0 0
          CHANNELS 6 Xposition Yposition Zposition Zrotation Xrotation Yrotation
          JOINT Bip01_R_HorseLink
          {
            OFFSET 9.07516 0 0
            CHANNELS 6 Xposition Yposition Zposition Zrotation Xrotation Yrotation
            JOINT Bip01_R_Foot
            {
              OFFSET 8.13856 0 0
              CHANNELS 6 Xposition Yposition Zposition Zrotation Xrotation Yrotation
              JOINT Bip01_R_Toe0
              {
                OFFSET 3.79737 6.30086 0
                CHANNELS 6 Xposition Yposition Zposition Zrotation Xrotation Yrotation
                JOINT Bip01_R_Toe0Nub
                {
                  OFFSET 0.838764 0 0
                  CHANNELS 6 Xposition Yposition Zposition Zrotation Xrotation Yrotation
                  End Site
                  {
                    OFFSET 0 0 0
                  }
                }
              }
            }
          }
        }
      }
      JOINT Bip01_L_Thigh
      {
        OFFSET -6.18667 -2.14873 5.3508
        CHANNELS 6 Xposition Yposition Zposition Zrotation Xrotation Yrotation
        JOINT Bip01_L_Calf
        {
          OFFSET 13.6591 0 0
          CHANNELS 6 Xposition Yposition Zposition Zrotation Xrotation Yrotation
          JOINT Bip01_L_HorseLink
          {
            OFFSET 9.07515 0 0
            CHANNELS 6 Xposition Yposition Zposition Zrotation Xrotation Yrotation
            JOINT Bip01_L_Foot
            {
              OFFSET 8.13856 0 0
              CHANNELS 6 Xposition Yposition Zposition Zrotation Xrotation Yrotation
              JOINT Bip01_L_Toe0
              {
                OFFSET 3.79737 6.30086 0
                CHANNELS 6 Xposition Yposition Zposition Zrotation Xrotation Yrotation
                JOINT Bip01_L_Toe0Nub
                {
                  OFFSET 0.838764 0 0
                  CHANNELS 6 Xposition Yposition Zposition Zrotation Xrotation Yrotation
                  End Site
                  {
                    OFFSET 0 0 0
                  }
                }
              }
            }
          }
        }
      }
      JOINT Bip01_Spine1
      {
        OFFSET 12.1687 -0.0105438 0
        CHANNELS 6 Xposition Yposition Zposition Zrotation Xrotation Yrotation
        JOINT BN_Mane_R_01
        {
          OFFSET -0.157498 5.09008 -6.54008
          CHANNELS 6 Xposition Yposition Zposition Zrotation Xrotation Yrotation
          End Site
          {
            OFFSET 0 0 0
          }
        }
        JOINT BN_Mane_R_02
        {
          OFFSET -0.1575 5.09007 6.54
          CHANNELS 6 Xposition Yposition Zposition Zrotation Xrotation Yrotation
          End Site
          {
            OFFSET 0 0 0
          }
        }
        JOINT BN_Mane_01
        {
          OFFSET 8.29709 8.50414 0
          CHANNELS 6 Xposition Yposition Zposition Zrotation Xrotation Yrotation
          End Site
          {
            OFFSET 0 0 0
          }
        }
        JOINT Bip01_Spine2
        {
          OFFSET 13.2802 -0.0100708 1.51992e-005
          CHANNELS 6 Xposition Yposition Zposition Zrotation Xrotation Yrotation
          JOINT Bip01_Neck
          {
            OFFSET 12.4891 -6.66662 0
            CHANNELS 6 Xposition Yposition Zposition Zrotation Xrotation Yrotation
            JOINT Bip01_R_Clavicle
            {
              OFFSET -7.4542 -2.82621 -1.17874
              CHANNELS 6 Xposition Yposition Zposition Zrotation Xrotation Yrotation
              JOINT Bip01_R_UpperArm
              {
                OFFSET 13.2557 0 0
                CHANNELS 6 Xposition Yposition Zposition Zrotation Xrotation Yrotation
                JOINT Bip01_R_Forearm
                {
                  OFFSET 12.8897 0 0
                  CHANNELS 6 Xposition Yposition Zposition Zrotation Xrotation Yrotation
                  JOINT Bip01_R_Hand
                  {
                    OFFSET 11.2622 0 0
                    CHANNELS 6 Xposition Yposition Zposition Zrotation Xrotation Yrotation
                    JOINT Bip01_R_Finger0
                    {
                      OFFSET 3.98015 -0.208661 -0.0949803
                      CHANNELS 6 Xposition Yposition Zposition Zrotation Xrotation Yrotation
                      JOINT Bip01_R_Finger0Nub
                      {
                        OFFSET 6.57561 0 0
                        CHANNELS 6 Xposition Yposition Zposition Zrotation Xrotation Yrotation
                        End Site
                        {
                          OFFSET 0 0 0
                        }
                      }
                    }
                  }
                }
              }
            }
            JOINT Bip01_L_Clavicle
            {
              OFFSET -7.4541 -2.82679 1.17708
              CHANNELS 6 Xposition Yposition Zposition Zrotation Xrotation Yrotation
              JOINT Bip01_L_UpperArm
              {
                OFFSET 13.2558 0 0
                CHANNELS 6 Xposition Yposition Zposition Zrotation Xrotation Yrotation
                JOINT Bip01_L_Forearm
                {
                  OFFSET 12.8897 0 0
                  CHANNELS 6 Xposition Yposition Zposition Zrotation Xrotation Yrotation
                  JOINT Bip01_L_Hand
                  {
                    OFFSET 11.2622 0 0
                    CHANNELS 6 Xposition Yposition Zposition Zrotation Xrotation Yrotation
                    JOINT Bip01_L_Finger0
                    {
                      OFFSET 3.98014 -0.20866 0.0949764
                      CHANNELS 6 Xposition Yposition Zposition Zrotation Xrotation Yrotation
                      JOINT Bip01_L_Finger0Nub
                      {
                        OFFSET 6.57562 0 0
                        CHANNELS 6 Xposition Yposition Zposition Zrotation Xrotation Yrotation
                        End Site
                        {
                          OFFSET 0 0 0
                        }
                      }
                    }
                  }
                }
              }
            }
            JOINT Bip01_Neck1
            {
              OFFSET 4.19352 -0.00332451 0
              CHANNELS 6 Xposition Yposition Zposition Zrotation Xrotation Yrotation
              JOINT Bip01_Head
              {
                OFFSET 4.17604 0.298252 0
                CHANNELS 6 Xposition Yposition Zposition Zrotation Xrotation Yrotation
                JOINT BN_Eye_R_01
                {
                  OFFSET 6.53258 -3.90694 -2.55361
                  CHANNELS 6 Xposition Yposition Zposition Zrotation Xrotation Yrotation
                  End Site
                  {
                    OFFSET 0 0 0
                  }
                }
                JOINT BN_Eye_L_01
                {
                  OFFSET 6.5326 -3.90694 2.55371
                  CHANNELS 6 Xposition Yposition Zposition Zrotation Xrotation Yrotation
                  End Site
                  {
                    OFFSET 0 0 0
                  }
                }
                JOINT BN_Ear_R_01
                {
                  OFFSET 1.75934 -4.1584 -4.45634
                  CHANNELS 6 Xposition Yposition Zposition Zrotation Xrotation Yrotation
                  End Site
                  {
                    OFFSET 0 0 0
                  }
                }
                JOINT BN_Ear_L_01
                {
                  OFFSET 1.75933 -4.15841 4.45616
                  CHANNELS 6 Xposition Yposition Zposition Zrotation Xrotation Yrotation
                  End Site
                  {
                    OFFSET 0 0 0
                  }
                }
                JOINT BN_Beard_L_01
                {
                  OFFSET 11.2964 -1.06183 2.32054
                  CHANNELS 6 Xposition Yposition Zposition Zrotation Xrotation Yrotation
                  End Site
                  {
                    OFFSET 0 0 0
                  }
                }
                JOINT BN_Beard_R_01
                {
                  OFFSET 11.2964 -1.06182 -2.32036
                  CHANNELS 6 Xposition Yposition Zposition Zrotation Xrotation Yrotation
                  End Site
                  {
                    OFFSET 0 0 0
                  }
                }
                JOINT BN_Mouth_0
                {
                  OFFSET 1.3149 1.30001 0
                  CHANNELS 6 Xposition Yposition Zposition Zrotation Xrotation Yrotation
                  End Site
                  {
                    OFFSET 0 0 0
                  }
                }
                JOINT Bip01_HeadNub
                {
                  OFFSET 12.6869 0 0
                  CHANNELS 6 Xposition Yposition Zposition Zrotation Xrotation Yrotation
                  End Site
                  {
                    OFFSET 0 0 0
                  }
                }
              }
            }
          }
        }
      }
    }
  }
}
MOTION
Frames:	4
Frame Time:	0.0333333
-3.32697 23.5942 -0.523168 -82.0339 -82.3903 -7.70527 0 1.13687e-013 0 -85.6441 -3.54757 -112.224 -7.25225 -1.74978 2.91025e-011 44.0102 9.17106 166.335 15.788 3.8147e-006 -9.53674e-007 -48.0718 11.6595 26.0424 16.0015 3.55271e-015 -1.77636e-015 -67.8597 35.8849 9.6754 16.1689 1.90735e-006 -3.8147e-006 -42.079 8.85679 7.79377 6.00091 2.29991 -2.67603 11.1694 7.4654 12.0955 6.12663 8.45826 -2.80775e-008 -88.9944 -0.0323334 -179.967 -5.65022 -1.44196 -3.85565 -133.175 -8.73623 136.55 13.6591 1.90735e-006 1.26121e-013 -86.8925 2.36586e-006 1.25204e-005 9.07515 -3.8147e-006 9.41469e-014 102.872 -4.79327e-006 -7.08666e-006 8.13856 3.8147e-006 1.7053e-013 -66.9186 8.33172 18.138 3.79737 6.30086 -5.56868e-007 95.2027 4.75014 12.7032 0.83877 1.15463e-014 8.88178e-015 -2.06404e-008 -7.09717e-011 1.00179e-005 -7.90585 -0.031156 6.66801 -118.801 2.30215 -165.51 13.6591 2.86102e-006 -4.9738e-014 -107.869 0.00269167 0.000876968 9.07516 -2.66454e-015 -3.55271e-015 100.207 2.29056e-009 -1.00548e-005 8.13855 1.77636e-015 3.55271e-015 -26.5569 -9.48078 -21.6461 3.79737 6.30086 9.10252e-008 89.8684 5.41185 7.43467 0.838764 -3.9968e-015 -3.55271e-015 -179.96 0.000290327 -0.000252995 12.1681 -0.0104809 5.7212e-012 -1.03551 -0.246726 -1.72647 -0.157498 5.09008 -6.54008 -92.7406 -0.0220269 -167.965 -0.157498 5.09006 6.54 87.2545 -0.000476558 11.9142 8.2971 8.50413 -3.72113e-008 -91.651 -0.0306396 -179.97 13.2792 -0.00986099 1.40763e-011 9.29196 -8.96091 -7.49158 12.4882 -6.66644 -1.00188e-005 4.37718 -4.11417 6.85689 -7.58898 -1.55944 -2.21574 -175.785 -52.813 132.811 13.2557 3.8147e-006 -1.90735e-006 79.004 61.1227 -112.528 12.8897 -2.13163e-014 9.53675e-007 -66.9274 -6.52087e-006 -1.63179e-005 11.2622 -9.53674e-007 -3.55271e-015 -75.5769 70.9067 78.9953 3.98015 -0.208662 -0.0949746 11.2112 17.0252 -30.2546 6.57561 -2.38418e-007 -1.19209e-007 179.96 1.72976e-005 1.73067e-005 -7.86961 -1.72846 0.117197 166.446 54.1437 -107.029 13.2557 5.32907e-015 -7.10543e-015 76.3061 -34.404 81.7593 12.8897 -7.10543e-015 9.53674e-007 -94.2553 1.64783e-006 1.31466e-006 11.2623 9.53673e-007 -2.86102e-006 -155.428 -62.9832 171.017 3.98015 -0.20866 0.0949726 6.17242 2.75266 59.9696 6.57562 2.86102e-006 -1.46549e-013 -1.29331e-007 -1.66047e-008 1.26406e-008 4.19499 -0.00312424 8.46416e-011 8.32307 -1.68232 -10.2719 4.17604 0.298252 -8.80452e-009 12.5675 10.3395 11.058 6.53259 -3.90694 -2.55361 133.025 18.1401 163.594 6.5326 -3.90695 2.55371 -46.976 18.1112 -16.4184 1.75934 -4.1584 -4.45634 24.7931 -39.7306 142.462 1.75933 -4.1584 4.45617 -155.196 -39.7317 -37.5282 11.2964 -1.06183 2.32054 151.28 -2.12705 -89.9982 11.2964 -1.06183 -2.32036 -28.7078 -2.13818 89.9962 1.31489 1.30001 -4.91063e-009 -166.935 -0.0300598 -179.997 12.6869 7.10543e-015 2.91145e-011 -5.37249e-008 -1.47604e-010 1.00179e-005 
-3.81167 23.492 -0.362149 -81.9707 -81.9748 -6.94339 0 1.13798e-013 -4.44089e-016 -84.1307 -2.48176 -111.405 -7.25225 -1.74978 2.91047e-011 43.4932 9.39714 166.546 15.788 3.8147e-006 -9.53674e-007 -49.5108 12.2174 28.1315 16.0015 0 0 -69.1328 33.378 11.7117 16.1689 1.90735e-006 -3.8147e-006 -48.34 12.3018 8.14681 5.97134 2.41439 -2.6397 11.6065 5.53914 11.0788 6.12663 8.45826 -2.69509e-008 -88.9944 -0.0323334 -179.967 -5.70524 -1.42728 -3.83022 -134.696 -7.80503 137.183 13.6591 1.90735e-006 1.35003e-013 -89.425 6.59178e-007 1.26462e-005 9.07515 -3.8147e-006 9.05942e-014 102.452 -3.94643e-006 -7.44923e-006 8.13856 3.8147e-006 1.66978e-013 -66.1956 8.76218 17.2059 3.79737 6.30086 -5.70012e-007 95.0425 4.7252 12.8501 0.83877 7.43849e-015 0 -2.06405e-008 -7.10228e-011 1.00179e-005 -7.78173 -0.379247 6.77233 -118.785 0.507292 -165.66 13.6591 2.86102e-006 -4.9738e-014 -108.255 -0.000180906 -5.04495e-005 9.07516 -9.76996e-015 3.55271e-015 99.7894 9.7944e-006 -1.18058e-005 8.13855 -2.66454e-015 7.10543e-015 -27.576 -9.99329 -22.2093 3.79737 6.30086 8.5254e-008 90.4656 5.55508 7.48802 0.838764 -1.43219e-014 -1.77636e-015 -179.96 0.000290327 -0.000252996 12.1681 -0.0104809 4.32454e-012 -1.41464 -0.394021 -1.32875 -0.157498 5.09008 -6.54008 -92.7406 -0.0220419 -167.965 -0.157498 5.09006 6.54 87.2545 -0.000475225 11.9159 8.2971 8.50413 -3.17826e-008 -91.651 -0.0304565 -179.97 13.2792 -0.00986099 7.78111e-012 11.3781 -9.08764 -7.36284 12.4882 -6.66644 -1.00153e-005 3.5271 -3.50637 6.25413 -7.58748 -1.68822 -2.12327 -175.786 -52.1603 131.828 13.2557 3.8147e-006 -1.90735e-006 83.1942 64.4742 -117.594 12.8897 -4.9738e-014 9.53675e-007 -65.6996 -1.52285e-005 -1.17894e-005 11.2622 -9.53674e-007 -7.10543e-015 -69.2651 69.8465 75.0877 3.98015 -0.208662 -0.0949745 11.2041 17.0191 -30.2374 6.57561 -2.38418e-007 -1.19209e-007 179.96 1.72975e-005 1.73069e-005 -7.84371 -1.83239 0.214138 167.836 54.7029 -107.972 13.2557 8.88178e-015 0 77.6871 -36.781 81.8764 12.8897 -7.10543e-015 9.53674e-007 -92.9462 -7.26178e-006 1.0521e-006 11.2623 9.53673e-007 -2.86102e-006 -157.853 -61.4679 170.574 3.98015 -0.20866 0.0949726 5.61 3.30548 57.8945 6.57562 2.86102e-006 -1.19016e-013 -1.29331e-007 -1.66047e-008 1.26406e-008 4.19499 -0.00312424 8.71188e-011 8.56632 -1.68806 -10.1914 4.17604 0.298252 -9.09333e-009 11.1107 10.4178 12.3478 6.53259 -3.90694 -2.55361 133.025 18.1402 163.594 6.5326 -3.90695 2.55371 -46.976 18.1112 -16.4184 1.75934 -4.1584 -4.45634 24.7931 -39.7306 142.462 1.75933 -4.1584 4.45617 -155.196 -39.7317 -37.5282 11.2964 -1.06183 2.32054 151.28 -2.12725 -89.9983 11.2964 -1.06183 -2.32036 -28.7077 -2.13819 89.9962 1.31489 1.30001 -2.83564e-009 -166.901 -0.0281983 -179.997 12.6869 0 2.91172e-011 -5.37248e-008 -1.4759e-010 1.00179e-005 
-4.29215 23.4021 -0.205539 -81.9695 -81.5877 -6.21066 -3.55271e-015 1.1377e-013 4.44089e-016 -82.8916 -1.4849 -110.697 -7.25225 -1.74978 2.91038e-011 42.9741 9.57205 166.807 15.788 3.8147e-006 -9.53674e-007 -50.7901 12.6198 29.5999 16.0015 0 -8.88178e-016 -70.0415 31.2427 13.2861 16.1689 1.90735e-006 -3.8147e-006 -53.3972 15.1053 8.49847 5.94245 2.52141 -2.60494 12.2155 3.75585 9.9112 6.12663 8.45826 -2.80568e-008 -88.9944 -0.0323334 -179.967 -5.77549 -1.38916 -3.78817 -136.514 -7.1946 137.867 13.6591 1.90735e-006 1.40332e-013 -91.5129 -8.0461e-006 1.24909e-005 9.07515 -3.8147e-006 8.34888e-014 101.683 -3.82472e-006 -7.64403e-006 8.13856 3.8147e-006 1.54543e-013 -65.4525 9.24167 16.2923 3.79737 6.30086 -5.83827e-007 94.8855 4.70037 12.9941 0.83877 5.21805e-015 1.06581e-014 -2.06406e-008 -7.10731e-011 1.00179e-005 -7.64027 -0.67784 6.88152 -116.471 -1.25975 -166.042 13.6591 2.86102e-006 -3.90799e-014 -109.403 -1.29317e-005 5.0061e-006 9.07516 -2.66454e-015 -3.55271e-015 102.47 8.99027e-006 -1.22159e-005 8.13855 -2.22045e-015 7.10543e-015 -28.9566 -9.66328 -22.4724 3.79737 6.30086 6.746e-008 91.9242 5.39349 6.48417 0.838764 -7.88258e-015 0 -179.96 0.000290328 -0.000252996 12.1681 -0.0104809 5.69345e-012 -1.87846 -0.528752 -0.637515 -0.157498 5.09008 -6.54008 -92.7406 -0.022012 -167.965 -0.157497 5.09006 6.54 87.2545 -0.000474764 11.9175 8.2971 8.50413 -2.6553e-008 -91.651 -0.0302887 -179.971 13.2792 -0.00986099 1.71818e-012 12.5608 -8.9899 -7.00813 12.4882 -6.66644 -1.00223e-005 2.51628 -2.84856 5.43503 -7.58679 -1.83999 -1.99899 -175.875 -51.49 130.425 13.2557 3.8147e-006 -1.90735e-006 87.3288 67.8458 -123.027 12.8897 0 9.53675e-007 -64.1613 -1.5095e-005 -1.09624e-005 11.2622 -9.53674e-007 -1.77636e-014 -63.7832 68.5138 71.9 3.98015 -0.208662 -0.0949745 11.1124 16.9531 -29.963 6.57561 -2.38418e-007 -1.19209e-007 179.96 1.72974e-005 1.7307e-005 -7.80974 -1.95709 0.343339 169.696 55.3643 -109.328 13.2557 5.32907e-015 -1.42109e-014 79.5456 -38.0172 82.4424 12.8897 -2.4869e-014 9.53674e-007 -91.6765 1.89031e-006 1.72676e-006 11.2623 9.53673e-007 -2.86102e-006 -160.67 -59.9039 170.065 3.98015 -0.20866 0.0949726 5.07263 3.86987 55.8208 6.57562 2.86102e-006 -1.20348e-013 -1.29331e-007 -1.66047e-008 1.26406e-008 4.19499 -0.00312424 8.81899e-011 9.31684 -1.84729 -10.0629 4.17604 0.298252 -9.13965e-009 10.2082 10.2933 13.0427 6.53259 -3.90694 -2.55361 133.025 18.1402 163.594 6.5326 -3.90695 2.55371 -46.976 18.1112 -16.4184 1.75934 -4.1584 -4.45634 24.7931 -39.7306 142.462 1.75933 -4.1584 4.45617 -155.196 -39.7317 -37.5282 11.2964 -1.06183 2.32054 151.28 -2.12723 -89.9983 11.2964 -1.06183 -2.32036 -28.7077 -2.13818 89.9962 1.31489 1.30001 -1.30182e-009 -166.868 -0.0263672 -179.997 12.6869 0 2.91078e-011 -5.37248e-008 -1.47575e-010 1.00179e-005 
-4.78096 23.3221 -0.051066 -82.0134 -81.2255 -5.49315 -3.55271e-015 1.13604e-013 -2.22045e-016 -81.9665 -0.613474 -110.125 -7.25225 -1.74978 2.91025e-011 42.4434 9.6962 167.128 15.788 3.8147e-006 -9.53674e-007 -51.9042 12.8752 30.4003 16.0015 1.06581e-014 -7.99361e-015 -70.7328 29.4964 14.4368 16.1689 1.90735e-006 -3.8147e-006 -57.1888 17.2475 8.82841 5.91645 2.61384 -2.57231 12.5788 2.03901 8.57904 6.12663 8.45826 -3.09953e-008 -88.9944 -0.0323334 -179.967 -5.85368 -1.3633 -3.7234 -138.305 -6.95362 138.553 13.6591 1.90735e-006 1.49214e-013 -93.1668 -8.59658e-006 1.23308e-005 9.07515 -3.8147e-006 7.10543e-014 100.553 5.18499e-006 -9.49592e-006 8.13856 3.8147e-006 1.66978e-013 -64.7036 9.80137 15.4135 3.79737 6.30086 -5.9905e-007 94.7494 4.67595 13.1159 0.83877 2.22045e-015 1.06581e-014 -2.06407e-008 -7.1125e-011 1.00179e-005 -7.47229 -0.976654 7.00303 -113.348 -3.56053 -166.369 13.6591 2.86102e-006 -2.4869e-014 -111.162 0.00115877 0.00045859 9.07516 -8.88178e-015 0 106.276 -1.49548e-006 -1.00094e-005 8.13855 -5.32907e-015 0 -30.6563 -8.92181 -22.7334 3.79737 6.30086 4.52954e-008 94.9513 5.00288 4.46704 0.838764 -7.77156e-015 3.55271e-015 -179.96 0.000290329 -0.000252996 12.1681 -0.0104809 9.33609e-012 -2.46722 -0.715324 0.35093 -0.157498 5.09008 -6.54008 -92.7406 -0.022012 -167.965 -0.157497 5.09006 6.54 87.2546 -0.000470227 11.9192 8.2971 8.50413 -2.08071e-008 -91.651 -0.0302124 -179.971 13.2792 -0.00986099 -4.9436e-012 13.537 -8.76328 -6.47869 12.4882 -6.66644 -1.00366e-005 1.39247 -2.14721 4.46408 -7.58183 -2.00659 -1.84948 -176.017 -50.8338 128.674 13.2557 3.8147e-006 -1.90735e-006 93.8192 71.7458 -131.233 12.8897 -2.13163e-014 9.53675e-007 -60.9358 -1.53309e-005 -9.66382e-006 11.2622 -9.53674e-007 -1.42109e-014 -60.1477 67.0099 69.5366 3.98015 -0.208662 -0.0949746 10.9014 16.7983 -29.3578 6.57561 -2.38418e-007 -1.19209e-007 179.96 1.72973e-005 1.73069e-005 -7.76496 -2.09501 0.497448 171.979 56.0501 -111.063 13.2557 1.24345e-014 0 81.7105 -38.7853 83.2866 12.8897 0 9.53674e-007 -89.8701 2.03383e-006 1.94322e-006 11.2623 9.53673e-007 -2.86102e-006 -163.769 -58.3511 169.855 3.98015 -0.20866 0.0949726 4.5482 4.46045 53.7105 6.57562 2.86102e-006 -1.08358e-013 -1.29331e-007 -1.66047e-008 1.26406e-008 4.19499 -0.00312424 8.77849e-011 10.4437 -2.13091 -9.88439 4.17604 0.298252 -8.92505e-009 9.5286 10.1848 13.2618 6.53259 -3.90694 -2.55361 133.025 18.1401 163.593 6.5326 -3.90695 2.55371 -46.976 18.1112 -16.4184 1.75934 -4.1584 -4.45634 24.7931 -39.7306 142.462 1.75933 -4.1584 4.45617 -155.196 -39.7317 -37.5282 11.2964 -1.06183 2.32054 151.28 -2.12724 -89.9983 11.2964 -1.06183 -2.32036 -28.7077 -2.13819 89.9962 1.31489 1.30001 -1.83181e-010 -166.835 -0.0245514 -179.997 12.6869 0 2.91016e-011 -5.37248e-008 -1.47574e-010 1.00179e-005 
